<svg width="140" height="16" viewBox="0 0 140 16" fill="none" xmlns="http://www.w3.org/2000/svg">
<path d="M99.3289 15.5655H107.522C108.077 15.5655 108.527 15.1155 108.527 14.5621C108.527 14.0072 108.076 13.558 107.522 13.558H100.445C100.383 13.558 100.331 13.5066 100.331 13.4449V1.70999C100.331 1.07776 99.816 0.563799 99.1822 0.563799C98.5476 0.563799 98.0337 1.07776 98.0337 1.70999V14.2728C98.0337 14.9868 98.6131 15.5655 99.3289 15.5655Z" fill="#009999"/>
<path d="M116.242 15.8079C120.637 15.8079 122.913 12.8298 122.913 9.3659V1.70998C122.913 1.07626 122.399 0.56304 121.765 0.56304C121.13 0.56304 120.617 1.077 120.617 1.70998V9.18962C120.617 11.7706 119.224 13.6673 116.242 13.6673C113.303 13.6673 111.934 11.903 111.934 9.21119V1.70998C111.934 1.07626 111.42 0.56304 110.786 0.56304C110.151 0.56304 109.638 1.077 109.638 1.70998V9.3659C109.636 13.1161 111.889 15.8079 116.242 15.8079Z" fill="#009999"/>
<path d="M126.704 15.6599H131.505C135.947 15.6599 139.26 12.9956 139.26 8.13342C139.26 3.22733 135.946 0.586098 131.505 0.56304H126.704C125.989 0.56304 125.408 1.14543 125.408 1.86394V14.3583C125.408 15.0775 125.989 15.6599 126.704 15.6599ZM127.821 2.5832H131.417C134.621 2.60477 136.897 4.53641 136.897 8.13268C136.897 11.6858 134.621 13.639 131.417 13.639H127.821C127.758 13.639 127.708 13.5877 127.708 13.5252V2.69774C127.708 2.63452 127.758 2.5832 127.821 2.5832Z" fill="#009999"/>
<path d="M49.8801 0.56304H40.67C39.9543 0.56304 39.3748 1.14172 39.3748 1.85651V14.272C39.3748 14.9868 39.9543 15.5655 40.67 15.5655H49.8801C50.7411 15.5655 51.4367 14.8693 51.4367 14.0109V13.9001C51.4367 13.0403 50.7403 12.3441 49.8801 12.3441H43.0176C42.958 12.3441 42.9103 12.2965 42.9103 12.237V9.58383C42.9103 9.52433 42.958 9.47672 43.0176 9.47672H48.2676C49.1286 9.47672 49.8257 8.78053 49.8257 7.9207C49.8257 7.06235 49.1286 6.36467 48.2676 6.36467H43.0176C42.958 6.36467 42.9103 6.31707 42.9103 6.25756V3.89154C42.9103 3.83203 42.958 3.78443 43.0176 3.78443H49.8801C50.7411 3.78443 51.4367 3.08824 51.4367 2.22989V2.11832C51.4367 1.25924 50.7411 0.56304 49.8801 0.56304Z" fill="#009999"/>
<path d="M59.9668 0.56304H54.5231C53.8073 0.56304 53.2279 1.14172 53.2279 1.85651V14.272C53.2279 14.9868 53.8073 15.5655 54.5231 15.5655H59.9668C64.4072 15.5655 67.7208 12.9183 67.7208 8.08582C67.7208 3.21022 64.4072 0.585354 59.9668 0.56304ZM59.8119 12.3441H57.0479C56.9876 12.3441 56.9392 12.295 56.9392 12.237V3.89154C56.9392 3.83129 56.9869 3.78443 57.0479 3.78443H59.8119C62.2421 3.78443 63.8993 5.30624 63.8993 8.08507C63.8985 10.823 62.2414 12.3441 59.8119 12.3441Z" fill="#009999"/>
<path d="M96.0538 14.5844C96.0538 14.426 96.018 14.2765 95.957 14.1403H95.9585L90.7948 1.70551C90.5081 1.01378 89.7745 0.56304 89.0245 0.56304H88.9872C88.2387 0.56304 87.5051 1.01378 87.2168 1.70551L82.0539 14.1403C81.9921 14.2765 81.9571 14.426 81.9571 14.5844C81.9571 15.1794 82.4405 15.6607 83.0363 15.6607C83.507 15.6607 83.9144 15.3654 84.0604 14.9451C84.0775 14.9027 84.0887 14.8745 84.1036 14.8403L85.1404 12.3337C85.1612 12.2868 85.2066 12.2563 85.258 12.2563H92.7551C92.8065 12.2563 92.8512 12.2868 92.872 12.3337L93.9088 14.8403C93.9237 14.8745 93.9364 14.9102 93.9498 14.9451C94.0972 15.3639 94.5061 15.6607 94.9761 15.6607C95.5704 15.6607 96.0538 15.1794 96.0538 14.5844ZM92.1265 10.5128H85.8837C85.8286 10.5128 85.7936 10.4578 85.8137 10.408L88.8882 3.16113C88.9098 3.10832 88.9567 3.08229 89.0051 3.08005C89.0542 3.08229 89.1012 3.10832 89.1228 3.16113L92.1965 10.408C92.2181 10.4585 92.1816 10.5128 92.1265 10.5128Z" fill="#009999"/>
<path d="M36.6464 12.5709H36.5548C35.1933 12.5709 33.8959 11.3035 32.5783 10.0926C32.5403 10.0569 32.5575 9.99814 32.6066 9.98624C34.8216 9.48939 36.4229 7.8084 36.4229 5.48924C36.4229 1.98074 33.5726 0.546697 30.6568 0.546697H24.8161C24.1004 0.546697 23.5209 1.12537 23.5209 1.84016V13.9328C23.5209 14.9556 24.3521 15.7856 25.3769 15.7856C26.4025 15.7856 27.233 14.9556 27.233 13.9321L27.2315 13.9254V10.2592C27.2315 10.1967 27.2829 10.1447 27.3462 10.1447H27.8027C27.8802 10.1462 28.0843 10.1744 28.3412 10.3812C30.259 11.929 32.6923 15.77 35.9582 15.77C36.3082 15.77 36.6404 15.7343 36.9562 15.68L36.9778 15.6763C37.6876 15.5246 38.2179 14.8946 38.2179 14.1411C38.2194 13.2731 37.5148 12.5709 36.6464 12.5709ZM30.5912 7.49006H27.3402C27.2806 7.49006 27.233 7.44097 27.233 7.38295V3.89156C27.233 3.83206 27.2806 3.78445 27.3402 3.78445H30.5912C31.806 3.78445 32.5791 4.48957 32.5791 5.638C32.5783 6.74031 31.806 7.49006 30.5912 7.49006Z" fill="#009999"/>
<path d="M76.891 7.12038L73.9088 6.326C72.6062 5.99501 71.8755 5.57179 71.8755 4.55651C71.8755 3.43114 72.951 2.22247 75.3448 2.4828C76.4329 2.60032 77.603 2.90081 78.5839 3.34486C78.6271 3.36569 78.7291 3.40511 78.8445 3.44155C78.9682 3.47726 79.0866 3.50924 79.2184 3.50924C79.7845 3.50924 80.2425 3.0518 80.2425 2.48726C80.2425 2.26933 80.174 2.0685 80.0586 1.90264C79.9439 1.73454 79.7696 1.58206 79.5149 1.46528C78.4282 1.00413 76.8954 0.455204 75.4334 0.363717C71.3773 0.112313 69.5131 2.39429 69.5131 4.73204C69.5131 6.69642 70.7278 7.99806 72.916 8.54922L75.9428 9.32054C77.6216 9.7393 78.5719 10.3135 78.5719 11.3727C78.5719 12.7628 77.1799 13.6673 74.9932 13.6673C73.7725 13.6673 72.5965 13.3579 71.6387 12.9674L71.5858 12.9466C71.4838 12.9064 71.3951 12.8804 71.2953 12.864C71.2953 12.864 71.1568 12.8447 71.0853 12.8447C70.7896 12.8447 70.523 12.9637 70.3286 13.157C70.1342 13.3497 70.0143 13.6182 70.0143 13.9135C70.0143 14.2021 70.1312 14.4646 70.3182 14.6588L70.3167 14.6603C70.4358 14.7889 70.5885 14.8923 70.7695 14.9615C71.851 15.3892 73.3763 15.7841 74.9485 15.7841C78.5057 15.7841 80.9583 13.8094 80.9583 11.029C80.956 8.91368 79.5409 7.84856 76.891 7.12038Z" fill="#009999"/>
<path d="M0 2.25742C0 1.35892 0.711276 0.648588 1.61098 0.648588H1.96699C2.65742 0.648588 3.13855 1.00412 3.432 1.48462L7.32428 7.81657L11.2374 1.46379C11.5726 0.920818 12.0329 0.648588 12.6816 0.648588H13.0376C13.9373 0.648588 14.6486 1.35892 14.6486 2.25742V13.8763C14.6486 14.7748 13.9373 15.4851 13.0376 15.4851C12.1587 15.4851 11.4474 14.754 11.4474 13.8763V6.58261L8.62171 10.9301C8.28655 11.4314 7.86872 11.7453 7.28257 11.7453C6.69642 11.7453 6.27785 11.4322 5.94344 10.9301L3.16015 6.64583V13.918C3.16015 14.7956 2.44887 15.4851 1.57002 15.4851C0.691167 15.4851 0.000744809 14.7956 0.000744809 13.918L0 2.25742Z" fill="#99CC00"/>
<path d="M16.5315 1.48388C16.5315 0.564543 17.3061 0 18.3101 0C19.3148 0 20.0887 0.564543 20.0887 1.48388V1.52553C20.0887 2.44487 19.3141 3.03024 18.3101 3.03024C17.3054 3.03024 16.5315 2.44487 16.5315 1.52553V1.48388ZM16.72 5.62163C16.72 4.74395 17.4313 4.03362 18.3101 4.03362C19.189 4.03362 19.9002 4.74395 19.9002 5.62163V13.8971C19.9002 14.7748 19.189 15.4851 18.3101 15.4851C17.4313 15.4851 16.72 14.7748 16.72 13.8971V5.62163Z" fill="#99CC00"/>
</svg>
